<?xml version="1.0" encoding="UTF-8"?>
<svg enable-background="new 0 0 192 128" version="1.1" viewBox="0 0 192 128" xml:space="preserve" xmlns="http://www.w3.org/2000/svg">
<style type="text/css">
	.st0{fill:#FFFFFF;}
	.st1{fill:#C3DAF2;}
	.st2{fill:#403D56;}
	.st3{fill:#69ABB7;}
	.st4{fill:#2E5B4A;}
	.st5{fill:#7D7B8B;}
	.st6{fill:#F1F1F1;}
	.st7{fill:#575DA5;}
	.st8{fill:#C3DAF2;stroke:#9C9B9B;stroke-width:0.2402;stroke-miterlimit:10;}
	.st9{fill:#57B793;}
	.st10{fill:#F6BCBD;}
	.st11{opacity:0.1;enable-background:new    ;}
</style>
<rect class="st0" width="192" height="128"/>
<rect class="st1" x="20.5" y="13.4" width="144.2" height="88.1"/>
<rect class="st2" x="10" y="122.7" width="69.2" height=".2"/>
<path class="st3" d="m46.4 118.8c0 0.2 0 0.4-0.1 0.6-0.1 0.3-0.5 0.6-0.6 0.8-0.2 0.5-0.1 1 0 1.4 0.1 0.3 0.3 0.6 0.5 0.8 0.2 0.1 0.5 0.2 0.7 0.2 2.1 0.3 4.3 0.1 6.4 0.2 0.4 0 0.8 0 1.2-0.2 0.3-0.2 0.5-0.6 0.3-1-0.2-0.3-0.6-0.3-1-0.3-0.9-0.1-1.7-0.4-2.5-1-0.1-0.1-0.3-0.3-0.3-0.4-0.1-0.1-0.1-0.3-0.2-0.4-0.3-0.8-0.6-1.6-1-2.3-0.1-0.2-0.3-0.4-0.5-0.5-0.1-0.1-0.3-0.1-0.5-0.1-0.5-0.1-1.9-0.2-2.3 0.2-0.5 0.4-0.1 1.5-0.1 2z"/>
<path class="st4" d="m171.4 115.3c8.2 0 19.6 1.1 19.6 2.5s-8.8 2.5-19.6 2.5-18.2-1.9-18.2-3.3c-0.1-1.3 7.3-1.7 18.2-1.7z"/>

	<circle class="st5" cx="23.4" cy="11.2" r="1.2"/>
	<circle class="st5" cx="27.5" cy="11.2" r="1.2"/>
	<circle class="st5" cx="31.6" cy="11.2" r="1.2"/>
	<rect class="st6" x="30.7" y="77" width="114.9" height="13.6"/>
	<rect class="st6" x="87.5" y="30.2" width="68.4" height="34.7"/>
	<polyline class="st7" points="99.5 61.7 115 35.9 131 61.7"/>
	<polygon class="st7" points="123 48.5 126.1 40.5 143.6 61.7 122.9 61.7"/>
	<path class="st7" d="m119.7 45.3c2-1.2 2.6-3.9 1.4-5.9s-3.9-2.6-5.9-1.4"/>
	<path class="st2" d="m175 97.9c-0.5 0-0.9 0-1.3-0.1-3-0.3-5.6-1.9-7.5-4.2-3.2-4-3.2-9.7-0.1-13.7-3.1-4-3.1-9.7 0-13.7-0.3-0.4-0.6-0.8-0.8-1.2l-0.1-0.1 5-0.8-5.4 0.1v-0.1c-1.3-2.8-1.3-6-0.2-8.9l0.1-0.1 7.8 4-7.2-5.3 0.1-0.1c1.5-2.6 3.9-4.4 6.7-5.2 2.9-0.8 5.9-0.4 8.5 1.1s4.4 3.9 5.2 6.7c0.8 2.9 0.4 5.9-1.1 8.5-0.3 0.5-0.5 0.9-0.9 1.3 0.5 0.6 0.9 1.3 1.3 2l0.1 0.1-6.9 3.6 7.3-2.4v0.1c1.2 3.6 0.5 7.5-1.7 10.4 3.8 4.8 2.9 11.8-1.9 15.6-2.1 1.6-4.5 2.4-7 2.4zm-9.4-32.8c0.3 0.4 0.5 0.8 0.8 1.1l0.1 0.1-0.1 0.1c-3.1 4-3.1 9.6 0 13.6l0.1 0.1-0.1 0.1c-3.1 4-3.1 9.6 0 13.6 1.8 2.3 4.4 3.8 7.3 4.1s5.8-0.5 8.1-2.2c4.8-3.7 5.6-10.6 1.9-15.4l-0.1-0.1 0.1-0.1c2.2-2.9 3-6.7 1.8-10.2l-8.3 2.8-0.1-0.2 7.8-4c-0.3-0.7-0.7-1.3-1.2-1.9l-0.1-0.1 0.1-0.1c0.3-0.4 0.6-0.9 0.9-1.3 1.5-2.5 1.9-5.5 1.1-8.3-0.7-2.8-2.6-5.2-5.1-6.7s-5.5-1.9-8.3-1.1c-2.8 0.7-5.2 2.5-6.6 5l8.1 5.9-0.1 0.1-8.7-4.5c-1.1 2.7-1 5.8 0.2 8.5l6.5-0.1v0.1l-6.1 1.1z"/>
	<path class="st8" d="m164.5 102.1h-144.5v-94h144.5v94zm-144.4-0.2h144.2v-93.6h-144.2v93.6z"/>
	<rect class="st2" x="20.1" y="13.3" width="144.3" height=".2"/>
	<path class="st2" d="m23.7 12c-0.7 0-1.3-0.6-1.3-1.3s0.6-1.3 1.3-1.3 1.3 0.6 1.3 1.3c-0.1 0.7-0.6 1.3-1.3 1.3zm0-2.4c-0.6 0-1.1 0.5-1.1 1.1s0.5 1.1 1.1 1.1 1.1-0.5 1.1-1.1-0.5-1.1-1.1-1.1z"/>
	<path class="st2" d="m27.8 12c-0.7 0-1.3-0.6-1.3-1.3s0.6-1.3 1.3-1.3 1.3 0.6 1.3 1.3-0.6 1.3-1.3 1.3zm0-2.4c-0.6 0-1.1 0.5-1.1 1.1s0.5 1.1 1.1 1.1 1.1-0.5 1.1-1.1-0.5-1.1-1.1-1.1z"/>
	<path class="st2" d="m31.9 12c-0.7 0-1.3-0.6-1.3-1.3s0.6-1.3 1.3-1.3 1.3 0.6 1.3 1.3-0.6 1.3-1.3 1.3zm0-2.4c-0.6 0-1.1 0.5-1.1 1.1s0.5 1.1 1.1 1.1 1.1-0.5 1.1-1.1-0.5-1.1-1.1-1.1z"/>
	<rect class="st6" x="22.8" y="34" width="49.8" height="3.6"/>
	<rect class="st6" x="22.8" y="42.6" width="49.8" height="3.6"/>
	<rect class="st6" x="22.8" y="51.2" width="49.8" height="3.6"/>
	<path class="st2" d="m74.4 36.5h-50v-3.8h50v3.8zm-49.8-0.2h49.7v-3.5h-49.7v3.5z"/>
	<path class="st2" d="m74.4 45.1h-50v-3.8h50v3.8zm-49.8-0.2h49.7v-3.5h-49.7v3.5z"/>
	<path class="st2" d="m74.4 53.7h-50v-3.8h50v3.8zm-49.8-0.2h49.7v-3.5h-49.7v3.5z"/>
	<path class="st2" d="m160 60.6h-68.5v-34.9h68.5v34.9zm-68.4-0.1h68.2v-34.6h-68.2v34.6z"/>
	<path class="st2" d="m149.7 87.6h-115v-13.7h115.1l-0.1 13.7zm-114.8-0.2h114.8v-13.3h-114.8v13.3z"/>
	<polygon class="st2" points="131.8 60.6 115.8 34.8 100.4 60.6 100.3 60.5 115.8 34.6 132 60.5"/>
	<polygon class="st2" points="144 60.6 126.6 39.1 123.6 47 123.4 46.9 126.6 38.7 126.6 38.8 144.2 60.5"/>
	<path class="st2" d="m121 43-0.1-0.1c2-1.2 2.6-3.8 1.4-5.8-0.6-0.9-1.5-1.6-2.6-1.9-1.1-0.2-2.2-0.1-3.2 0.5l-0.1-0.1c1-0.6 2.2-0.8 3.3-0.5s2.1 1 2.7 2c1.3 1.9 0.6 4.6-1.4 5.9z"/>
	<path class="st9" d="m4.6 66.8c2.1 0.1 3.8-1.5 3.9-3.5s-1.5-3.8-3.5-3.9c-0.7-0.1-1.4 0.1-2 0.5l0.6 1.8-1.4-1.4c-0.6 0.7-1.1 1.7-1.1 2.7 0 0.4 0 0.7 0.1 1 0.3 1.6 1.7 2.8 3.4 2.8z"/>
	<path class="st2" d="m15.4 86.7c-0.9-1.6 0.4-3.6 1.1-4.6 0.1-0.1 0.2-0.3 0.4-0.4 0.9-1.2 1.9-2.4 1.9-3.8-0.1-2.2-2.2-3.5-4.2-4.8-0.1-0.1-0.2-0.2-0.4-0.2-1.5-0.9-2.9-2.1-4.1-3.3-0.5-0.5-1-1.1-1.3-1.7-0.5-1-0.4-2.1-0.4-3.1 0.1-3.4 0.2-6.8 0.5-10.2h0.1c-0.2 3.3-0.4 6.8-0.5 10.2 0 0.9-0.1 2.1 0.4 3 0.3 0.6 0.8 1.2 1.2 1.6 1.2 1.2 2.6 2.3 4.1 3.3 0.1 0.1 0.2 0.2 0.4 0.2 2 1.2 4.2 17.8 4.2 20.1 0 1.5-1-12.5-1.9-11.3-0.1 0.1-0.2 0.3-0.4 0.4-0.8 1-2 2.9-1.1 4.5v0.1z"/>
	<path class="st2" d="m4.8 66.4h-0.2c-1.7-0.1-3.1-1.3-3.5-2.9 0-0.4-0.1-0.7-0.1-1.1 0.1-1 0.5-1.9 1.2-2.6l0.1-0.1 1.1 1.1-0.5-1.5 0.1-0.1c0.6-0.4 1.4-0.5 2.1-0.5 1 0.1 1.9 0.5 2.6 1.2 0.7 0.8 1.1 1.7 1 2.8-0.1 1-0.5 1.9-1.2 2.6-0.9 0.8-1.7 1.1-2.7 1.1zm-2.5-6.4c-0.7 0.6-1.1 1.5-1.1 2.5 0 0.4 0 0.6 0.1 1 0.4 1.6 1.8 2.7 3.3 2.8 0.9 0.1 1.9-0.3 2.6-0.9s1.1-1.5 1.2-2.5c0.2-2.1-1.4-3.8-3.4-3.9-0.6-0.1-1.3 0.1-1.9 0.4l0.8 2.1-1.6-1.5z"/>
	<path class="st9" d="m5.2 55.1c0-1.3 0.7-2.4 1.8-3.1l0.8 1.6v-2c2-0.6 4.1 0.5 4.6 2.5 0.6 2-0.5 4.1-2.5 4.6-2 0.6-4.1-0.5-4.6-2.5-0.1-0.3-0.1-0.7-0.1-1.1z"/>
	<path class="st2" d="m8.9 58.4c-1.6 0-3.2-1.1-3.6-2.7-0.1-0.4-0.2-0.8-0.2-1.2 0.1-1.3 0.8-2.5 1.9-3.1v-0.1l0.7 1.4v-1.7h0.1c2-0.6 4.1 0.6 4.7 2.6s-0.6 4.1-2.6 4.7c-0.3 0-0.7 0.1-1 0.1zm-1.9-6.9c-1.1 0.6-1.7 1.7-1.8 2.9 0 0.4 0.1 0.8 0.1 1.2 0.6 1.9 2.6 3 4.5 2.5 1.9-0.6 3-2.6 2.5-4.5-0.6-1.9-2.5-3-4.5-2.5v2.3l-0.8-1.9z"/>
	<path class="st9" d="m13.7 73c2.1 0.1 3.8-1.5 3.9-3.5 0.1-1.7-1.1-3.3-2.7-3.8v1.5l-0.9-1.6c-2.1-0.1-3.8 1.5-3.9 3.5-0.1 2.1 1.5 3.8 3.6 3.9z"/>
	<path class="st2" d="m13.8 72.4h-0.2c-1-0.1-1.9-0.5-2.6-1.2-0.7-0.8-1.1-1.7-1-2.8 0.1-2.1 1.9-3.7 4-3.6l0.7 1.4v-1.3l0.1 0.1c1.7 0.5 2.9 2.1 2.8 3.8-0.1 1-0.5 1.9-1.2 2.6s-1.7 1-2.6 1zm0-7.4c-1.9 0-3.5 1.5-3.6 3.5-0.1 0.9 0.3 1.9 0.9 2.6s1.5 1.1 2.5 1.2c0.9 0.1 1.9-0.3 2.6-0.9s1.1-1.5 1.2-2.5c0.1-1.6-0.9-3.1-2.5-3.6v1.8l-1.1-2.1c0.1 0 0.1 0 0 0z"/>
	<path class="st9" d="m11.8 80c0.9 1.8 3.2 2.5 5 1.6s2.5-3.2 1.6-5-3.2-2.5-5-1.6c-0.8 0.4-1.5 1.1-1.8 2l2.3 1.9-2.5-0.6c0 0.6 0.1 1.2 0.4 1.7z"/>
	<path class="st2" d="m15.1 81.6c-1.4 0-2.7-0.8-3.4-2.1-0.3-0.5-0.4-1.1-0.4-1.8v-0.1l2.3 0.5-2.1-1.7v-0.1c0.4-0.9 1-1.6 1.8-2.1 0.9-0.5 1.9-0.5 2.9-0.2 0.9 0.3 1.8 1 2.2 1.9 0.9 1.9 0.2 4.2-1.6 5.1-0.5 0.5-1.1 0.6-1.7 0.6zm-3.7-3.6c0 0.5 0.2 1.1 0.4 1.5 0.9 1.8 3.1 2.5 4.9 1.6s2.5-3.1 1.6-4.9c-0.5-0.9-1.2-1.5-2.1-1.8s-1.9-0.2-2.8 0.2c-0.8 0.4-1.4 1.1-1.7 1.9l2.6 2.1-2.9-0.6z"/>
	<path class="st3" d="m35.6 112.1c-0.3 0.2-0.6 0.3-1 0.4-0.6 0.2-1.2 0.1-1.8 0.3-0.3 0.1-0.5 0.2-0.6 0.4s0 0.4 0.1 0.5c0.6 1.9 1 4 2.1 5.7 0.5 0.7 1 1.4 1.6 2 0.2 0.3 0.5 0.4 0.8 0.5 0.5 0.1 0.9-0.3 0.9-0.8 0-0.1 0-0.3-0.1-0.5s-0.3-0.4-0.4-0.6c-0.1-0.3-0.2-0.5-0.2-0.8-0.1-0.8-0.2-1.7 0.1-2.5 0.2-0.5 0.5-1 0.8-1.5s0.5-1 0.5-1.5c-0.1-0.4-0.2-0.7-0.5-1-0.2-0.3-0.6-1.2-1-1.4-0.1 0-0.9 0.7-1.3 0.8z"/>
	<circle class="st10" cx="49.7" cy="68.4" r="3.4"/>
	<path class="st10" d="m46.6 71.2c-0.2 0.6-0.6 1-1 1.4l4.6 1c-0.2-0.7-0.2-1.4-0.1-2.1 0.1-0.2 0.1-0.3 0-0.5-0.1-0.3-0.5-0.5-0.8-0.6-0.8-0.2-1.6-0.3-2.4-0.6-0.1 0.3-0.1 0.9-0.3 1.4z"/>
	<path class="st2" d="m45.5 71.3c1-0.5 2.2-0.5 3.2 0.1 0.6 0.3 1.1 0.8 1.6 1.3s0.9 0.9 1 1.5c0 0.3-0.1 0.6-0.1 0.9-0.2 1.3 0.5 2.5 1.6 3.1 0.4 0.6 0.5 1.4 0.5 2.1 0 2.7-0.8 5.5-0.2 8.2 0.1 0.6 0.4 1.2 0.5 1.9 0.2 0.8 0.1 1.7 0.3 2.5 0.1 0.9 0.3 1.8 0.6 2.6-0.2 0.3-0.6 0.5-1 0.5-0.4-0.1-0.8-0.2-1.1-0.4-1.7-0.8-3.2-1.9-4.8-2.6-1.2-0.5-2.3-0.8-3.4-1.3s-2.1-1.4-2.5-2.6c-0.1-0.5-0.2-1-0.2-1.5-0.1-2.3-0.1-4.5 0.5-6.6 0.5-1.9 1.2-3.7 1.4-5.7 0.1-0.6 0.1-1.3 0.4-1.9 0.3-1.1 1.3-1.3 1.7-2.1z"/>
	<path class="st2" d="m47.2 63.5c-2 0.4-1.5 1-2.1 1.2-0.3 0.1-0.6 0.3-0.8 0.5-0.3 0.2-0.3 0.6-0.3 0.8 0.1 0.1 0.1 0.3 0.2 0.3 0.4 0.6 0.1 1.4 0.2 2 0.1 0.8 1.4 2.3 2.2 2.5 1.5 0.3 0.6-1.7 1.1-2.3 0.2-0.3 0.6-0.3 0.9-0.2s0.6 0.3 0.9 0.3c0.1 0.1 0.3 0 0.5-0.1 0.1-0.1 0.2-0.3 0.2-0.4 0.1-0.6 0.1-1.4 0.1-2v-0.3c0.1-0.2 0.3-0.3 0.5-0.3 2.3-2.1-0.8-1-0.9-1.7"/>
	<path class="st2" d="m45.8 105.8c0.1 0.6 0.2 1.2 0.2 1.9-0.1 0.9-0.4 1.7-0.4 2.6-0.1 0.6 0.1 1.3-0.1 1.9l-0.3 1.2c-0.3 1.4 0 2.8 0.8 3.9 0.1 0.1 0.1 0.2 0.3 0.3 0.1 0.1 0.2 0.1 0.3 0.1 1 0 1.9-0.1 3-0.3 0.1 0 0.1-0.1 0.2-0.1 0-0.1 0.1-0.1 0.1-0.1 0.2-0.9-0.3-1.9-0.3-2.8-0.1-1 0.1-2 0.4-3 0.1-0.5 0.3-1 0.4-1.4 0.1-0.3 0.3-0.6 0.3-1 0.1-0.5 0.3-1 0.3-1.5 0.1-0.8 0.1-1.7 0.1-2.5s-0.1-1.5-0.2-2.3c-0.2-1-0.6-1.9-1.1-2.8-0.3 0.1-0.5 0.2-0.6 0.3-0.6 0.4-1.2 0.7-1.8 1-0.4 0.2-1.2 0.3-1.5 0.7s-0.1 1.2-0.1 1.7c-0.1 0.7-0.1 1.4 0 2.2z"/>
	<path class="st11" d="m45.8 105.8c0.1 0.6 0.2 1.2 0.2 1.9-0.1 0.9-0.4 1.7-0.4 2.6-0.1 0.6 0.1 1.3-0.1 1.9l-0.3 1.2c-0.3 1.4 0 2.8 0.8 3.9 0.1 0.1 0.1 0.2 0.3 0.3 0.1 0.1 0.2 0.1 0.3 0.1 1 0 1.9-0.1 3-0.3 0.1 0 0.1-0.1 0.2-0.1 0-0.1 0.1-0.1 0.1-0.1 0.2-0.9-0.3-1.9-0.3-2.8-0.1-1 0.1-2 0.4-3 0.1-0.5 0.3-1 0.4-1.4 0.1-0.3 0.3-0.6 0.3-1 0.1-0.5 0.3-1 0.3-1.5 0.1-0.8 0.1-1.7 0.1-2.5s-0.1-1.5-0.2-2.3c-0.2-1-0.6-1.9-1.1-2.8-0.3 0.1-0.5 0.2-0.6 0.3-0.6 0.4-1.2 0.7-1.8 1-0.4 0.2-1.2 0.3-1.5 0.7s-0.1 1.2-0.1 1.7c-0.1 0.7-0.1 1.4 0 2.2z"/>
	<path class="st2" d="m41.3 92.5c-0.5 1.2 0.2 2.5 0.8 3.7 1.4 2.8 2.4 5.9 3.4 8.9 0.1 0.2 0.1 0.5 0.1 0.7-0.1 0.1-0.2 0.3-0.3 0.4-0.6 0.5-1.5 0.7-2.3 1s-1.5 0.6-2.2 1c-0.6 0.4-1.1 0.8-1.7 1.2l-1.7 1.3-0.3 0.3c-0.2 0.3-0.1 0.6 0 0.9 0.2 0.8 0.5 1.5 0.8 2.3 0.1 0.2 0.2 0.3 0.3 0.4 0.3 0.1 0.6-0.1 0.8-0.3s0.4-0.5 0.6-0.6c0.3-0.1 0.6 0 0.9 0 0.5-0.1 0.8-0.5 1.2-0.8 1.4-1.4 3.9-1.3 5.4-2.6 0.3-0.2 0.5-0.4 0.7-0.6 0.3-0.1 0.6-0.3 0.8-0.4 0.8-0.5 1.4-1.3 1.7-2.2s0.4-1.9 0.6-2.8c0.1-0.5 0.2-1 0.3-1.4v-1.4l-0.6-7.1c-0.1-0.6-0.1-1.2-0.2-1.7-1.7 0.1-3.4 0.1-5.1 0.1-1.4 0.1-2.7 0.1-4-0.3z"/>
	<path class="st2" d="m40.6 94.1c0.3 0.4 0.8 0.4 1.2 0.1s0.7-0.5 1.1-0.8c0.5-0.3 1.2-0.3 1.7-0.3 0.9 0 1.9 0.1 2.8 0.3 0.9 0.3 1.8 0.8 2.8 0.6 0.2 0 0.3-0.1 0.5-0.2 0.1-0.1 0.1-0.2 0.1-0.3v-0.8c0-0.1 0-0.3-0.1-0.5l-0.3-0.3c-1.4-0.6-2.9-0.8-4.5-0.8-0.8 0-1.5-0.1-2.3-0.1-0.6 0-1.4-0.1-2.1 0.1-0.8 0.6-1.3 2.3-0.9 3z"/>
	<path class="st7" d="m49.2 72.3c-1.8 0-3.4-1.2-5.2-1.2-0.2 0-0.5 0-0.6 0.1-0.3 0.1-0.5 0.3-0.6 0.6-0.5 0.6-1.3 0.9-1.8 1.4s-0.8 1.3-0.6 2 1 1.2 1.7 1.1c0.3-0.9 0.9-1.7 1.7-2.3 0.4-0.3 0.8-0.5 1.3-0.7 0.8-0.4 1.7-0.7 2.5-0.5 0.3 0.1 0.6 0.3 0.8 0.5l1.4 1c-0.2-0.7-0.3-1.4-0.6-2z"/>
	<path class="st7" d="m41.8 75.6c-0.3 0.3 0.1 0.7 0.1 1.1-0.1 0.3-0.3 0.5-0.3 0.6-0.1 0.3-0.1 0.5-0.1 0.8-0.1 0.2-0.1 0.4-0.1 0.6-0.1 0.5-0.3 1.1-0.3 1.6l-0.3 2.3c-0.1 0.3-0.1 0.7-0.1 1s0 0.5-0.1 0.8-0.2 0.5-0.3 0.7c-0.1 0.3-0.1 0.5 0 0.8-0.5 0.4-0.6 1.1-0.3 1.7 0.1 0.1 0.1 0.2 0.1 0.3s0 0.3-0.1 0.4l-0.3 0.8c-0.1 0.2-0.1 0.5 0.1 0.6-0.2 0.2-0.3 0.5-0.5 0.6-0.1 0.3-0.1 0.5 0.1 0.8 0.1 0.1 0.1 0.1 0.2 0.3v0.4c-0.1 0.4-0.1 0.8 0.2 1.1 0.2 0.3 0.6 0.5 1 0.5 0.6-0.1 1.2-0.4 1.8-0.3 1.4 0.2 2.7 0.5 4.1 0.9 1.5 0.5 3 1.2 4.6 1.4 0.1 0 0.2 0 0.3-0.1s0.1-0.2 0.1-0.3l0.5-2.3c0.2-0.8 0.3-1.7 0.5-2.6 0.1-0.6 0.1-1.1 0.1-1.7l0.1-4.5c0.1-0.6 0-1.3-0.3-1.9l-0.7-2.3c-0.4-1.3-1.4-2.5-1.7-3.8-0.2-0.8-0.4-1.7-1-2.5-0.8-1-2.3-1.1-3.5-0.9-0.6 0.1-1.1 0.2-1.6 0.5-0.6 0.3-1 0.8-1.4 1.4-0.2 0.5-0.5 0.8-0.9 1.2z"/>
	<path class="st10" d="m44.7 88.7c0.1 0.5 0.3 0.8 0.5 1.3 0.2 0.7 0.2 1.5 0.5 2.3l0.3 0.9c0.1 0.7-0.1 1.5-0.3 2.1-0.3 0.6-0.6 1.4-0.7 2.1-0.1 0.5 0 1.1 0.5 1.4 0.4 0.3 1 0.3 1.5 0.3 0.2 0 0.4-0.1 0.6-0.1 0.4-0.2 0.6-0.7 0.7-1.2 0.3-1.5 0.3-3 0.1-4.6l-0.3-4c0-0.8-0.1-1.5-0.3-2.3-0.1-0.3-0.3-0.8-0.5-1-0.3-0.2-1-0.2-1.2-0.2-1.7 0.1-1.6 2.1-1.4 3z"/>
	<path class="st2" d="m46.2 74c-0.3-0.1-0.6-0.1-0.9 0.1s-0.5 0.4-0.7 0.6c-0.6 0.8-1.3 1.6-1.2 2.6 0.1 0.4 0.1 0.7 0.3 1.1 0.4 1.5-0.1 3.2 0 4.8 0.1 0.9 0.2 1.9 0.5 2.8 0.1 0.2 0.1 0.4 0.3 0.5 0.1 0 0.3 0 0.4-0.1 1-0.4 2.1-0.3 3 0.4 0.3-0.2 0.2-0.8 0.1-1.1-0.2-1.1 0.1-2.3 0.5-3.3s0.8-2.1 0.8-3.2c0.1-1.3-0.3-2.5-0.8-3.7-0.1-0.5-0.5-0.9-1-1-0.4-0.2-0.8-0.3-1.3-0.5z"/>
	<path class="st9" d="m170.9 97.8c-0.1 0.4-0.2 0.9-0.2 1.3 0 0.7 0.1 1.3 0.5 1.9-0.7 1.1-0.7 2.5 0 3.7-0.7 1.1-0.7 2.5 0 3.7-0.7 1.1-0.7 2.5 0 3.7-0.3 0.5-0.5 1.2-0.5 1.9 0 1.7 1.1 3 2.3 3 1.3 0 2.3-1.3 2.3-3 0-0.7-0.1-1.3-0.5-1.9 0.7-1.1 0.7-2.5 0-3.7 0.7-1.1 0.7-2.5 0-3.7 0.7-1.1 0.7-2.5 0-3.7 0.3-0.5 0.5-1.2 0.5-1.9 0-0.5-0.1-0.9-0.2-1.3"/>
	<path class="st9" d="m164.4 66.5c-0.3-0.4-0.6-0.8-0.9-1.3l6.1-1-6.5 0.1c-1.3-2.8-1.3-5.9-0.2-8.7l8.8 4.6-8.1-5.9c3-5.3 9.8-7.1 15.1-4 5.3 3 7.1 9.8 4 15.1-0.3 0.5-0.5 0.9-0.9 1.3 0.5 0.6 0.9 1.3 1.3 2l-7.9 4.1 8.4-2.8c1.2 3.6 0.5 7.5-1.8 10.4 3.8 4.8 3 11.8-1.9 15.5s-11.8 3-15.5-1.9c-3.2-4-3.2-9.7 0-13.7-3.2-4.2-3.2-9.8 0-13.8z"/>
	<path class="st2" d="m174.9 116.8c-1.3 0-2.4-1.4-2.4-3.1 0-0.7 0.1-1.3 0.5-1.9-0.6-1.1-0.6-2.6 0-3.7-0.6-1.1-0.6-2.6 0-3.7-0.6-1.1-0.6-2.6 0-3.7-0.3-0.6-0.5-1.2-0.5-1.9 0-0.5 0.1-0.9 0.3-1.3l0.2 0.1c-0.1 0.4-0.2 0.9-0.2 1.3 0 0.7 0.1 1.3 0.5 1.8v0.2c-0.6 1.1-0.6 2.5 0 3.6v0.2c-0.6 1.1-0.6 2.5 0 3.6v0.2c-0.6 1.1-0.6 2.5 0 3.6v0.2c-0.3 0.5-0.5 1.2-0.5 1.8 0 1.6 1 2.9 2.2 2.9s2.2-1.3 2.2-2.9c0-0.7-0.1-1.3-0.5-1.8v-0.2c0.6-1.1 0.6-2.5 0-3.6v-0.2c0.6-1.1 0.6-2.5 0-3.6v-0.2c0.6-1.1 0.6-2.5 0-3.6v-0.2c0.3-0.5 0.5-1.2 0.5-1.8 0-0.4-0.1-0.9-0.2-1.3l0.2-0.1c0.1 0.4 0.2 0.9 0.2 1.3 0 0.7-0.1 1.3-0.5 1.9 0.6 1.1 0.6 2.6 0 3.7 0.6 1.1 0.6 2.6 0 3.7 0.6 1.1 0.6 2.6 0 3.7 0.3 0.6 0.5 1.2 0.5 1.9-0.1 1.7-1.1 3.1-2.5 3.1z"/>

</svg>
