<svg id="Layer_1" data-name="Layer 1" xmlns="http://www.w3.org/2000/svg" viewBox="0 0 192 128"><defs><style>.cls-1{fill:#fff;}.cls-2,.cls-6{fill:#403d56;}.cls-11,.cls-2{stroke:#7a7a7c;stroke-miterlimit:10;}.cls-2{stroke-width:0.3px;}.cls-3{fill:#c3daf2;}.cls-4{fill:#6a6a71;}.cls-5{fill:#f9bb25;}.cls-7{fill:#575da5;}.cls-8{fill:#57a461;}.cls-9{fill:#e6f1fb;}.cls-10{fill:#c6e0f4;}.cls-11{fill:none;stroke-width:0.59px;}.cls-12{fill:#f5b6b8;}.cls-13{fill:#9d7613;}.cls-14{fill:#2f2f41;}.cls-15{fill:#575b89;}</style></defs><title>OLD_home_OALD_FOOT3*</title><rect class="cls-1" width="192" height="128"/><rect class="cls-2" x="114.4" y="119.67" width="69.73" height="0.19"/><rect class="cls-3" x="20.82" y="25.71" width="148.16" height="76.79"/><rect class="cls-4" x="6.1" y="43.56" width="152" height="1.12"/><rect class="cls-4" x="27.98" y="66.92" width="129.21" height="1.12"/><rect class="cls-4" x="27.98" y="74.72" width="129.21" height="1.12"/><rect class="cls-4" x="28.49" y="82.58" width="127.53" height="1.12"/><rect class="cls-5" x="31.64" y="38.72" width="22.46" height="18.27"/><path class="cls-6" d="M50.85,54.15H27.44V35H50.85ZM28.39,53.2H49.91V35.88H28.39Z"/><circle class="cls-7" cx="9.41" cy="44.75" r="4.43"/><circle class="cls-1" cx="79.7" cy="43.56" r="10.05"/><path class="cls-8" d="M79.7,32.27A11.12,11.12,0,1,0,90.82,43.39,11.1,11.1,0,0,0,79.7,32.27Zm-2,16.08L73,43.56l1.36-1.35,3.43,3.42L85,38.36l1.36,1.36Z"/><path class="cls-9" d="M23.63,72.14c.51-1.42,1-4.9-.41-7.3l-14.37,2L22.62,64a9,9,0,0,0-16.1,5.48c0,4.65,4.29,8,9,8A8.61,8.61,0,0,0,23.63,72.14Z"/><circle class="cls-10" cx="27.95" cy="11.55" r="4.85"/><rect class="cls-11" x="15.38" y="18.67" width="148.16" height="76.79"/><path class="cls-12" d="M168.32,76.55l-1,2.49s-1.18,5.37-3.28,5.7a6.06,6.06,0,0,0-3.07,1.83c-.66.85,1,.78,2,.26,2.42-1.37-.59.66,1.89-.13,1.51-.46,4.72-6,4.91-6.28S171.07,77,171.07,77Z"/><path class="cls-13" d="M169.57,86.5,167.34,88l1.12,5.5s.26,7.46.19,7.79S166.88,113,166.88,113a6.11,6.11,0,0,0,3.74.39s1.76-8.45,1.76-10.87l2-8.51,3.21,9.76s.2,6.54.59,8.7.39,2.43.39,2.43,3,.85,3.73,0c0,0-.39-11.07-.65-12.18L181,89.38Z"/><path class="cls-14" d="M167.6,113s-.19-.26-.72.46a18.3,18.3,0,0,1-2.35,2.16s-4.85,3.47-1.25,3.67,4.32-1.71,4.32-1.71,3.08-.59,3.21-1.24a24.19,24.19,0,0,0-.39-3.27Z"/><path class="cls-14" d="M178.73,114.65a10.27,10.27,0,0,0-.46,3.21c.2,1-.39,4.39,2.23,4.13s1.77-3.28,1.77-3.28l-.85-3.86Z"/><circle class="cls-12" cx="175.07" cy="62.61" r="3.08"/><path class="cls-12" d="M173.23,64.25s.92,3.27.2,4.51,5,.2,5.43-.91c0,0-1.89-2-1.57-4Z"/><path class="cls-15" d="M174.74,68.63s2.55.2,3.8-1.24l4.58,2-2,10.87s3.92,9.16.39,10-13.82,0-13.36-3.08a27.24,27.24,0,0,1,2.36-6.81s.46-4.12-.59-6a5.57,5.57,0,0,1-.39-4l4.12-2.75C173.69,67.58,173.89,68.63,174.74,68.63Z"/><path class="cls-15" d="M170.75,70.4h-1.12s-1.31.26-1,3.86l-.66,2.55s3.27.86,3.73.4S170.75,70.4,170.75,70.4Z"/><path class="cls-12" d="M184.3,76l-.4,3.27A16.66,16.66,0,0,1,182.79,87l-.59,1.7s-.59,4.85-2,4.85,0-5.5,0-5.5l.72-5.5s.59-2.16.2-3.08a11.07,11.07,0,0,1-.46-2.88Z"/><path class="cls-14" d="M174.28,60.58a9.2,9.2,0,0,1,1.38-.13,2.58,2.58,0,0,1,1,.13,1.76,1.76,0,0,1,.85,1.18,5.07,5.07,0,0,0,.59,1.37A3.83,3.83,0,0,0,178.8,61a2.61,2.61,0,0,0-.13-1.57,2.15,2.15,0,0,0-.66-.72,5.7,5.7,0,0,0-4.25-1.57l-.07.26a3.42,3.42,0,0,0-.78.06l.06.59-.78.07v.59h-.85a.86.86,0,0,0,.26.59l-.4.19.4,1.57c.13.4.06.72.52.53s.52-.59.85-.79S173.89,60.65,174.28,60.58Z"/><path class="cls-15" d="M181.88,69.48h1.3s2.17,7.2,1.77,7.27-4.78.39-4.78.39Z"/></svg>